<svg width="40.000000" height="40.000000" viewBox="0 0 40 40" fill="none" xmlns="http://www.w3.org/2000/svg" xmlns:xlink="http://www.w3.org/1999/xlink">
	<desc>
			Created with Pixso.
	</desc>
	<defs/>
	<path id="Ellipse 2" d="M31.87 12.22C31.87 17.55 26.48 27.35 22.07 35.27C21.24 36.75 19 36.62 18.25 35.1C14.44 27.37 8.12 17.48 8.12 12.22C8.12 6.02 13.44 1 20 1C26.55 1 31.87 6.02 31.87 12.22ZM29.87 12.22Q29.87 17.17 20.32 34.29Q20.31 34.31 20.22 34.31Q20.1 34.31 20.06 34.24Q20.05 34.23 20.04 34.22Q19.03 32.18 16.68 27.81Q10.12 15.61 10.12 12.22Q10.12 10.54 10.68 9.07Q11.39 7.24 12.97 5.74Q14.25 4.53 15.76 3.85Q17.69 3 20 3Q22.3 3 24.23 3.85Q25.74 4.53 27.02 5.74Q28.6 7.24 29.31 9.07Q29.87 10.54 29.87 12.22Z" fill="#000000" fill-opacity="1.000000" fill-rule="evenodd"/>
	<circle id="Ellipse 3" cx="20.000000" cy="13.000000" r="4.000000" stroke="#000000" stroke-opacity="1.000000" stroke-width="2.000000"/>
</svg>
