<svg width="44.000000" height="40.000000" viewBox="0 0 44 40" fill="none" xmlns="http://www.w3.org/2000/svg" xmlns:xlink="http://www.w3.org/1999/xlink">
	<desc>
			Created with Pixso.
	</desc>
	<defs>
		<clipPath id="clip1_1239">
			<rect id="пошта" rx="0.000000" width="63.000000" height="38.000000" transform="translate(-14.500000 1.500000)" fill="white" fill-opacity="0"/>
		</clipPath>
		<clipPath id="clip1_1238">
			<rect id="пошта" rx="0.000000" width="43.000000" height="39.000000" transform="translate(0.500000 0.500000)" fill="white" fill-opacity="0"/>
		</clipPath>
	</defs>
	<g clip-path="url(#clip1_1238)">
		<g clip-path="url(#clip1_1239)">
			<rect id="Rectangle 1" x="2.542969" y="6.176270" rx="4.000000" width="38.000000" height="30.000000" stroke="#000000" stroke-opacity="1.000000" stroke-width="2.000000"/>
			<path id="Polygon 1" d="M39.86 12.62C43.24 10.47 41.71 5.25 37.71 5.25L6.28 5.25C2.28 5.25 0.75 10.47 4.13 12.62L19.85 22.63C21.16 23.46 22.83 23.46 24.14 22.63L39.86 12.62ZM38.79 10.93C40.47 9.86 39.71 7.25 37.71 7.25L6.28 7.25C4.28 7.25 3.52 9.86 5.2 10.93L20.92 20.94C21.58 21.36 22.41 21.36 23.07 20.94L38.79 10.93Z" fill="#000000" fill-opacity="1.000000" fill-rule="evenodd"/>
		</g>
	</g>
</svg>
