<svg width="40.000000" height="40.000000" viewBox="0 0 40 40" fill="none" xmlns="http://www.w3.org/2000/svg" xmlns:xlink="http://www.w3.org/1999/xlink">
	<desc>
			Created with Pixso.
	</desc>
	<defs/>
	<path id="Vector 9" d="M16.83 10.1C16.13 9.37 13.08 6.29 11.47 4.66C11.34 4.54 11.2 4.41 11.04 4.33C10.45 4 9.41 3.72 8.7 4.47C7.87 5.33 5.57 7.16 4.82 8.4C3.79 10.1 3.92 10.52 4.18 12.7C4.5 15.42 5.6 17.7 7.15 20.61C8.7 23.52 13.47 28.65 18.25 32.07C23.03 35.49 26.77 36 27.8 36C28.84 36 30.45 35.81 32.45 34.1C33.82 32.92 34.85 31.92 35.35 31.4C35.48 31.26 35.64 31.13 35.76 30.97C36.09 30.53 36.24 29.65 35.03 28.46C33.68 27.14 31.33 24.61 30.11 23.29C29.95 23.11 29.77 22.94 29.55 22.84C28.99 22.58 28.07 22.4 27.35 23.02C26.86 23.44 26.11 24.19 25.43 24.91C24.59 25.79 23.31 26.12 22.25 25.54C19.85 24.24 16.51 21.72 14.08 17.79C13.39 16.68 13.67 15.26 14.62 14.36L16.38 12.7C16.83 12.15 17.55 10.86 16.83 10.1Z" stroke="#000000" stroke-opacity="1.000000" stroke-width="2.000000"/>
</svg>
